# xmcd
#
# Track frame offsets: 
#        150
#        15220
#        32317
#        46225
#        61337
#        77829
#        95667
#        107835
#        125195
#        141232
#
# Disc length: 2080 seconds
#
# Revision: 0
# Processed by: cddbd v1.5.2PL0 Copyright (c) Steve Scherf et al.
# Submitted via: ExactAudioCopy v0.99pb5
#
DISCID=7d081e0a
DTITLE=Various Artist - Fresh Country
DYEAR=1996
DGENRE=Country
TTITLE0=Ricky Van Shelton - Somebody Lied
TTITLE1=Rodney Crowell - Lovin' All Night
TTITLE2=Tanya Tucker - What's Your Mama's Name
TTITLE3=Doug Stone - I'd Be Better Off In A Pine Box
TTITLE4=Shenandoah - Next To You, Next To Me
TTITLE5=Shelby Lane - Things Are Tough All Over
TTITLE6=Ricky Skaggs - Let It Be You
TTITLE7=Ver Gosdin - Chiseled In Stone
TTITLE8=Joy White - True Confessions
TTITLE9=Asleep At The Wheel - Boogie Back To Texas
EXTD=
EXTT0=
EXTT1=
EXTT2=
EXTT3=
EXTT4=
EXTT5=
EXTT6=
EXTT7=
EXTT8=
EXTT9=
PLAYORDER=
